<svg width="131" height="28" viewBox="0 0 131 28" fill="none" xmlns="http://www.w3.org/2000/svg">
<g filter="url(#filter0_d_22510_80)">
<path d="M18.092 0.858C18.7507 0.858 19.288 1.07467 19.704 1.508C20.1373 1.94133 20.354 2.50467 20.354 3.198V17.108C20.354 17.8187 20.146 18.3907 19.73 18.824C19.314 19.2573 18.7767 19.474 18.118 19.474C17.338 19.474 16.7487 19.214 16.35 18.694L8.446 8.84V17.108C8.446 17.8187 8.24667 18.3907 7.848 18.824C7.44933 19.2573 6.912 19.474 6.236 19.474C5.57733 19.474 5.04 19.2573 4.624 18.824C4.208 18.3907 4 17.8187 4 17.108V3.198C4 2.50467 4.208 1.94133 4.624 1.508C5.04 1.07467 5.57733 0.858 6.236 0.858C6.98133 0.858 7.562 1.118 7.978 1.638L15.882 11.466V3.198C15.882 2.48733 16.0813 1.924 16.48 1.508C16.896 1.07467 17.4333 0.858 18.092 0.858Z" fill="url(#paint0_linear_22510_80)"/>
<path d="M33.9477 6.266C34.6584 6.266 35.2217 6.45667 35.6377 6.838C36.0537 7.21933 36.2617 7.73933 36.2617 8.398V17.394C36.2617 18.0007 36.0451 18.5033 35.6117 18.902C35.1784 19.2833 34.6151 19.474 33.9217 19.474C33.2977 19.474 32.7864 19.3093 32.3877 18.98C31.9891 18.6333 31.7811 18.174 31.7637 17.602C31.3651 18.226 30.8537 18.7027 30.2297 19.032C29.6231 19.3613 28.9211 19.526 28.1237 19.526C26.4771 19.526 25.2551 19.0753 24.4577 18.174C23.6604 17.2553 23.2617 15.8687 23.2617 14.014V8.398C23.2617 7.73933 23.4697 7.21933 23.8857 6.838C24.3017 6.45667 24.8651 6.266 25.5757 6.266C26.2864 6.266 26.8497 6.45667 27.2657 6.838C27.6817 7.21933 27.8897 7.73933 27.8897 8.398V14.118C27.8897 15.366 28.4271 15.99 29.5017 15.99C30.1257 15.99 30.6371 15.7647 31.0357 15.314C31.4344 14.8633 31.6337 14.274 31.6337 13.546V8.398C31.6337 7.73933 31.8417 7.21933 32.2577 6.838C32.6737 6.45667 33.2371 6.266 33.9477 6.266Z" fill="url(#paint1_linear_22510_80)"/>
<path d="M62.177 15.73C62.6277 16.1633 62.853 16.666 62.853 17.238C62.853 17.81 62.6364 18.3127 62.203 18.746C61.7697 19.1793 61.2584 19.396 60.669 19.396C60.0277 19.396 59.4384 19.1187 58.901 18.564L51.491 10.972V17.108C51.491 17.836 51.2744 18.4167 50.841 18.85C50.4077 19.266 49.8184 19.474 49.073 19.474C48.345 19.474 47.7644 19.266 47.331 18.85C46.915 18.4167 46.707 17.836 46.707 17.108V3.198C46.707 2.48733 46.915 1.924 47.331 1.508C47.7644 1.07467 48.345 0.858 49.073 0.858C49.8184 0.858 50.4077 1.07467 50.841 1.508C51.2744 1.924 51.491 2.48733 51.491 3.198V8.918L58.797 1.56C59.2477 1.092 59.759 0.858 60.331 0.858C60.903 0.858 61.4057 1.07467 61.839 1.508C62.2724 1.924 62.489 2.418 62.489 2.99C62.489 3.562 62.2377 4.09067 61.735 4.576L56.405 9.802L62.177 15.73Z" fill="url(#paint2_linear_22510_80)"/>
<path d="M74.8224 15.21C75.221 15.21 75.5417 15.366 75.7844 15.678C76.0444 15.99 76.1744 16.3973 76.1744 16.9C76.1744 17.5933 75.8364 18.122 75.1604 18.486C74.571 18.7807 73.869 19.032 73.0544 19.24C72.257 19.4307 71.5204 19.526 70.8444 19.526C69.423 19.526 68.1837 19.2573 67.1264 18.72C66.069 18.1827 65.2544 17.4113 64.6824 16.406C64.1104 15.4007 63.8244 14.222 63.8244 12.87C63.8244 11.5873 64.093 10.4433 64.6304 9.438C65.185 8.41533 65.9477 7.62667 66.9184 7.072C67.9064 6.5 69.0157 6.214 70.2464 6.214C71.4424 6.214 72.491 6.474 73.3924 6.994C74.2937 7.514 74.987 8.25067 75.4724 9.204C75.975 10.1573 76.2264 11.2753 76.2264 12.558C76.2264 12.9567 76.131 13.2687 75.9404 13.494C75.767 13.702 75.507 13.806 75.1604 13.806H68.2964C68.4177 14.638 68.6864 15.236 69.1024 15.6C69.5184 15.964 70.1337 16.146 70.9484 16.146C71.3817 16.146 71.7804 16.1027 72.1444 16.016C72.5084 15.912 72.9157 15.7733 73.3664 15.6C73.6264 15.496 73.8777 15.4093 74.1204 15.34C74.3804 15.2533 74.6144 15.21 74.8224 15.21ZM70.3764 9.334C69.7697 9.334 69.2844 9.53333 68.9204 9.932C68.5564 10.3133 68.3397 10.8767 68.2704 11.622H72.3524C72.2484 10.0967 71.5897 9.334 70.3764 9.334Z" fill="url(#paint3_linear_22510_80)"/>
<path d="M86.9424 6.214C88.4678 6.214 89.6031 6.67333 90.3484 7.592C91.0938 8.49333 91.4664 9.87133 91.4664 11.726V17.342C91.4664 18.0007 91.2584 18.5207 90.8424 18.902C90.4264 19.2833 89.8631 19.474 89.1524 19.474C88.4418 19.474 87.8784 19.2833 87.4624 18.902C87.0464 18.5207 86.8384 18.0007 86.8384 17.342V11.934C86.8384 11.1713 86.6998 10.6167 86.4224 10.27C86.1624 9.92333 85.7638 9.75 85.2264 9.75C84.5331 9.75 83.9784 9.97533 83.5624 10.426C83.1638 10.8593 82.9644 11.4487 82.9644 12.194V17.342C82.9644 18.0007 82.7564 18.5207 82.3404 18.902C81.9244 19.2833 81.3611 19.474 80.6504 19.474C79.9398 19.474 79.3764 19.2833 78.9604 18.902C78.5444 18.5207 78.3364 18.0007 78.3364 17.342V8.346C78.3364 7.73933 78.5531 7.24533 78.9864 6.864C79.4198 6.46533 79.9831 6.266 80.6764 6.266C81.3351 6.266 81.8551 6.448 82.2364 6.812C82.6351 7.176 82.8344 7.65267 82.8344 8.242C83.2851 7.58333 83.8658 7.08067 84.5764 6.734C85.2871 6.38733 86.0758 6.214 86.9424 6.214Z" fill="url(#paint4_linear_22510_80)"/>
<path d="M103.777 15.912C105.163 15.912 105.857 16.4753 105.857 17.602C105.857 18.746 105.163 19.318 103.777 19.318H95.5866C94.98 19.318 94.486 19.1273 94.1046 18.746C93.7233 18.3647 93.5326 17.9053 93.5326 17.368C93.5326 16.796 93.7493 16.2673 94.1826 15.782L99.6426 9.932H95.4566C94.07 9.932 93.3766 9.36 93.3766 8.216C93.3766 7.08933 94.07 6.526 95.4566 6.526H103.335C103.941 6.526 104.435 6.71667 104.817 7.098C105.198 7.47933 105.389 7.93867 105.389 8.476C105.389 9.03067 105.172 9.55067 104.739 10.036L99.2526 15.912H103.777Z" fill="url(#paint5_linear_22510_80)"/>
<path d="M109.875 19.474C109.216 19.474 108.662 19.3007 108.211 18.954C107.778 18.59 107.561 18.0527 107.561 17.342V8.398C107.561 7.68733 107.778 7.15867 108.211 6.812C108.662 6.448 109.216 6.266 109.875 6.266C110.534 6.266 111.08 6.448 111.513 6.812C111.964 7.15867 112.189 7.68733 112.189 8.398V17.342C112.189 18.0527 111.964 18.59 111.513 18.954C111.08 19.3007 110.534 19.474 109.875 19.474ZM109.875 4.446C109.095 4.446 108.471 4.24667 108.003 3.848C107.552 3.432 107.327 2.886 107.327 2.21C107.327 1.534 107.552 0.996667 108.003 0.598C108.471 0.199333 109.095 0 109.875 0C110.638 0 111.253 0.199333 111.721 0.598C112.189 0.996667 112.423 1.534 112.423 2.21C112.423 2.886 112.189 3.432 111.721 3.848C111.27 4.24667 110.655 4.446 109.875 4.446Z" fill="url(#paint6_linear_22510_80)"/>
<path d="M125.274 15.21C125.672 15.21 125.993 15.366 126.236 15.678C126.496 15.99 126.626 16.3973 126.626 16.9C126.626 17.5933 126.288 18.122 125.612 18.486C125.022 18.7807 124.32 19.032 123.506 19.24C122.708 19.4307 121.972 19.526 121.296 19.526C119.874 19.526 118.635 19.2573 117.578 18.72C116.52 18.1827 115.706 17.4113 115.134 16.406C114.562 15.4007 114.276 14.222 114.276 12.87C114.276 11.5873 114.544 10.4433 115.082 9.438C115.636 8.41533 116.399 7.62667 117.37 7.072C118.358 6.5 119.467 6.214 120.698 6.214C121.894 6.214 122.942 6.474 123.844 6.994C124.745 7.514 125.438 8.25067 125.924 9.204C126.426 10.1573 126.678 11.2753 126.678 12.558C126.678 12.9567 126.582 13.2687 126.392 13.494C126.218 13.702 125.958 13.806 125.612 13.806H118.748C118.869 14.638 119.138 15.236 119.554 15.6C119.97 15.964 120.585 16.146 121.4 16.146C121.833 16.146 122.232 16.1027 122.596 16.016C122.96 15.912 123.367 15.7733 123.818 15.6C124.078 15.496 124.329 15.4093 124.572 15.34C124.832 15.2533 125.066 15.21 125.274 15.21ZM120.828 9.334C120.221 9.334 119.736 9.53333 119.372 9.932C119.008 10.3133 118.791 10.8767 118.722 11.622H122.804C122.7 10.0967 122.041 9.334 120.828 9.334Z" fill="url(#paint7_linear_22510_80)"/>
</g>
<defs>
<filter id="filter0_d_22510_80" x="0" y="0" width="130.678" height="27.526" filterUnits="userSpaceOnUse" color-interpolation-filters="sRGB">
<feFlood flood-opacity="0" result="BackgroundImageFix"/>
<feColorMatrix in="SourceAlpha" type="matrix" values="0 0 0 0 0 0 0 0 0 0 0 0 0 0 0 0 0 0 127 0" result="hardAlpha"/>
<feOffset dy="4"/>
<feGaussianBlur stdDeviation="2"/>
<feComposite in2="hardAlpha" operator="out"/>
<feColorMatrix type="matrix" values="0 0 0 0 0 0 0 0 0 0 0 0 0 0 0 0 0 0 0.25 0"/>
<feBlend mode="normal" in2="BackgroundImageFix" result="effect1_dropShadow_22510_80"/>
<feBlend mode="normal" in="SourceGraphic" in2="effect1_dropShadow_22510_80" result="shape"/>
</filter>
<linearGradient id="paint0_linear_22510_80" x1="39.3857" y1="19.318" x2="39.8857" y2="19.318" gradientUnits="userSpaceOnUse">
<stop stop-color="#FD377E"/>
<stop offset="1" stop-color="#212529"/>
</linearGradient>
<linearGradient id="paint1_linear_22510_80" x1="39.3857" y1="19.318" x2="39.8857" y2="19.318" gradientUnits="userSpaceOnUse">
<stop stop-color="#FD377E"/>
<stop offset="1" stop-color="#212529"/>
</linearGradient>
<linearGradient id="paint2_linear_22510_80" x1="39.3857" y1="19.318" x2="39.8857" y2="19.318" gradientUnits="userSpaceOnUse">
<stop stop-color="#FD377E"/>
<stop offset="1" stop-color="#212529"/>
</linearGradient>
<linearGradient id="paint3_linear_22510_80" x1="39.3857" y1="19.318" x2="39.8857" y2="19.318" gradientUnits="userSpaceOnUse">
<stop stop-color="#FD377E"/>
<stop offset="1" stop-color="#212529"/>
</linearGradient>
<linearGradient id="paint4_linear_22510_80" x1="39.3857" y1="19.318" x2="39.8857" y2="19.318" gradientUnits="userSpaceOnUse">
<stop stop-color="#FD377E"/>
<stop offset="1" stop-color="#212529"/>
</linearGradient>
<linearGradient id="paint5_linear_22510_80" x1="39.3857" y1="19.318" x2="39.8857" y2="19.318" gradientUnits="userSpaceOnUse">
<stop stop-color="#FD377E"/>
<stop offset="1" stop-color="#212529"/>
</linearGradient>
<linearGradient id="paint6_linear_22510_80" x1="39.3857" y1="19.318" x2="39.8857" y2="19.318" gradientUnits="userSpaceOnUse">
<stop stop-color="#FD377E"/>
<stop offset="1" stop-color="#212529"/>
</linearGradient>
<linearGradient id="paint7_linear_22510_80" x1="39.3857" y1="19.318" x2="39.8857" y2="19.318" gradientUnits="userSpaceOnUse">
<stop stop-color="#FD377E"/>
<stop offset="1" stop-color="#212529"/>
</linearGradient>
</defs>
</svg>
